<svg id="visual" viewBox="0 0 900 450" width="900" height="450" xmlns="http://www.w3.org/2000/svg" xmlns:xlink="http://www.w3.org/1999/xlink" version="1.1"><rect x="0" y="0" width="900" height="450" fill="#001122"></rect><defs><linearGradient id="grad1_0" x1="50%" y1="0%" x2="100%" y2="100%"><stop offset="10%" stop-color="#001122" stop-opacity="1"></stop><stop offset="90%" stop-color="#001122" stop-opacity="1"></stop></linearGradient></defs><defs><linearGradient id="grad2_0" x1="0%" y1="0%" x2="50%" y2="100%"><stop offset="10%" stop-color="#001122" stop-opacity="1"></stop><stop offset="90%" stop-color="#001122" stop-opacity="1"></stop></linearGradient></defs><g transform="translate(900, 0)"><path d="M0 397C-54.1 404.9 -108.2 412.7 -166.8 402.8C-225.5 392.9 -288.7 365.1 -318.2 318.2C-347.7 271.3 -343.5 205.1 -359.4 148.9C-375.2 92.6 -411.1 46.3 -447 0L0 0Z" fill="#FF0066"></path></g><g transform="translate(0, 450)"><path d="M0 -450C49 -415.9 97.9 -381.8 147.7 -356.6C197.5 -331.4 248.2 -315.2 281.4 -281.4C314.7 -247.7 330.5 -196.4 353.8 -146.6C377.2 -96.7 408.1 -48.4 439 0L0 0Z" fill="#FF0066"></path></g></svg>